<?xml version="1.0" encoding="UTF-8"?>
<svg width="180px" height="170px" viewBox="0 0 180 170" version="1.1" xmlns="http://www.w3.org/2000/svg" xmlns:xlink="http://www.w3.org/1999/xlink">
    <!-- Generator: Sketch 49 (51002) - http://www.bohemiancoding.com/sketch -->
    <title>Artboard 2</title>
    <desc>Created with Sketch.</desc>
    <defs></defs>
    <g id="Artboard-2" stroke="none" stroke-width="1" fill="none" fill-rule="evenodd">
        <path d="M0.00011207407,170 C3.73672165e-05,169.95215 0,169.904291 0,169.856423 C0,133.115321 22.0144362,101.516144 53.571889,87.530744 C63.3646187,95.925908 76.0900498,100.997612 90,100.997612 C103.90995,100.997612 116.635381,95.925908 126.428097,87.5307557 C157.985564,101.516144 180,133.115321 180,169.856423 C180,169.904291 179.999963,169.95215 179.999888,170 L0.000104032586,170 Z M90,90.0031143 C65.1471863,90.0031143 45,69.8552309 45,45.0015571 C45,20.1478834 65.1471863,0 90,0 C114.852814,0 135,20.1478834 135,45.0015571 C135,69.8552309 114.852814,90.0031143 90,90.0031143 Z" id="Combined-Shape" fill="#D8D8D8"></path>
    </g>
</svg>